<svg xmlns="http://www.w3.org/2000/svg" width="530" height="136" fill-rule="evenodd" xmlns:v="https://vecta.io/nano"><path d="M342.694 29.417c5.027 4.329 2.809 17.047-4.85 27.802-3.169 4.45-3.733 16.83-1.251 27.44 2.365 10.104 2.405 9.715-1.093 10.463-2.684.574-2.549.654 1.281.76 5.426.15 6.012-1.209 3.859-8.953-3.083-11.087-2.299-24.083 1.866-30.938C351.202 41.675 351.134 27 342.372 27h-2.484l2.806 2.417m-33.525 5.113c4.804 2.609 6.355 18.965 3.244 34.22-.636 3.116 1.477 4.855 2.967 2.444 6.019-9.739 1.436-38.264-6.13-38.154l-2.75.04 2.669 1.45m141.567 3.22c.275 2.953-.498 8.911-2.043 15.75-2.452 10.849-4.373 31.487-3.055 32.805 1.911 1.911 3.366-1.976 3.435-9.177.075-7.882.971-14.701 2.839-21.628 3.333-12.353 3.224-22.5-.24-22.5-1.04 0-1.27 1.167-.936 4.75M81.251 36.413c7.665 2.062 12.501 10.21 7.255 12.223-1.539.59-1.123 2.364.553 2.364C91.022 51 94 46.886 94 44.174c0-4.963-6.489-9.241-13.815-9.107l-3.685.068 4.751 1.278m-10.662 7.664c-4.707 5.593-2.988 8.906 7.673 14.793 17.556 9.693 19.314 22.954 4.156 31.357-4.299 2.383-4.586 2.729-2.281 2.75 19.199.17 20.64-24.307 2.035-34.574-3.67-2.025-7.459-4.364-8.422-5.197-3.882-3.362-.656-10.416 5.25-11.482 1.644-.297 1.076-.498-1.661-.588-3.505-.115-4.57.349-6.75 2.941m61.502 12.796c1.698 1.375 2.285 2.836 2.21 5.5-.098 3.461.049 3.627 3.215 3.627 4.148 0 4.273.411 3.676 11.996-.65 12.589 1.96 11.525 3.817-1.557 1.368-9.638.717-11.439-4.131-11.439-2.48 0-2.878-.384-2.878-2.777 0-3.908-2.601-7.223-5.667-7.223h-2.555l2.313 1.873m61.486 4.877c-1.919 18.156-1.88 25.834.124 24.021 1.399-1.266 1.791-2.678 1.482-5.331-.232-1.984.38-7.555 1.36-12.381C198.372 59.048 198.14 56 195.624 56c-1.015 0-1.618 1.696-2.047 5.75m74.061-2.811c.339 1.695.134 4.99-.454 7.321-2.316 9.173-2.496 13.458-.483 11.456 2.155-2.141 5.167-15.201 4.316-18.711-.95-3.919-4.162-3.982-3.379-.066M374.94 56.25c-.166.691-.948 11.419-1.509 20.706-.574 9.512-.487 10.335.969 9.127 1.107-.918 1.6-2.999 1.6-6.75 0-2.982.736-8.352 1.635-11.933 1.263-5.024 1.382-7.068.522-8.955-.894-1.963-2.938-3.357-3.217-2.195m-259.626 1.767C126.423 61.351 119.65 78 107.184 78c-3.319 0-1.361 6.951 2.361 8.379 3.117 1.196 6.326.763 3.955-.534-5.387-2.946-5.794-6.512-.848-7.439 13.494-2.532 16.476-21.491 3.348-21.288-3.477.054-3.482.059-.686.899m111.436.936c2.566 2.423 2.833 6.58 1.221 18.999-.957 7.372-.283 10.344 1.777 7.84 5.002-6.077 2.837-27.831-2.848-28.628l-2.4-.337 2.25 2.126m180.095-.105c2.709 2.084 2.789 2.905 1.708 17.652-.798 10.881-.785 10.981 1.154 9.246 1.078-.965 1.975-2.315 1.994-3s.373-5.804.787-11.376c.827-11.127-.482-14.4-5.738-14.348l-2.25.022 2.345 1.804m-246.372 1.066c.366 1.154-.051 4.564-.928 7.578-2.464 8.477-.457 19.508 3.549 19.508 1.744 0 1.833-.265.758-2.25-1.132-2.09-1.337-8.947-.636-21.229.238-4.174-.015-5.038-1.563-5.342-1.473-.29-1.712.061-1.18 1.735m195.31 3.836c-4.229 4.849-5.472 14.011-2.676 19.731 1.518 3.106 5.589 4.684 4.362 1.692-3.958-9.655-2.214-19.725 3.839-22.163 1.981-.798 1.895-.889-.903-.947-1.766-.036-3.751.689-4.622 1.687m72.942.002c-3.845 4.248-4.907 13.482-2.276 19.78 1.081 2.587 4.622 5.096 4.54 3.218-.006-.138-.697-2.5-1.537-5.25-2.123-6.958-.92-13.89 3.113-17.922 1.437-1.437 1.407-1.578-.339-1.578-1.054 0-2.629.788-3.501 1.752m-182.189 2.98c-3.972 5.845-3.204 18.03 1.243 19.737 2.199.844 2.283.38.72-4.007-2.427-6.815-.42-15.669 4.156-18.329 1.642-.954 1.547-1.076-.869-1.103-2.032-.022-3.351.908-5.25 3.702m233.77-1.033c-.656.237-.98.988-.718 1.669.263.687-2.206 3.182-5.536 5.594-5.372 3.892-5.937 4.63-5.317 6.946 1.899 7.089-.784 11.841-7.408 13.122l-3.827.74 3.846.115c7.607.227 12.493-5.239 11.307-12.651-.578-3.616-.412-3.878 4.843-7.686 6.505-4.713 8.342-9.843 2.81-7.849M215.299 71.26c-5.689 7.594-5.716 7.656-6.305 14.49-.461 5.336-.301 6.25 1.094 6.25 1.27 0 1.755-1.337 2.178-5.998.426-4.7 1.28-7.027 3.945-10.75 6.445-9.003 5.603-12.687-.912-3.992m181.362-1.207c-5.328 6.184-6.799 9.374-7.405 16.062-.38 4.184-.973 5.91-2.141 6.222-.888.237-.161.483 1.616.547 3.554.128 3.779-.318 4.581-9.073.311-3.402 1.446-6.076 4.134-9.738 5.068-6.904 4.446-10.091-.785-4.02M277 68.579c0 .868-2.654 4.826-5.898 8.796l-5.898 7.219-1.073 13.609c-1.548 19.652-3.334 23.178-12.631 24.95-3.259.62-2.909.688 1.884.363 10.622-.72 13.205-5.471 14.323-26.339l.622-11.599 6.335-8.012C281.379 69.074 282.23 67 279 67c-1.155 0-2 .667-2 1.579m-148.024 6.972C123.988 86.002 119.239 90.623 112 92.07l-3.5.7 3.5.093c9.021.24 22-12.502 22-21.598 0-3.989-1.813-2.443-5.024 4.286M321.5 73.096c-2.75 1.588-5.964 2.891-7.143 2.896-2.591.01-3.357 1.751-3.357 7.635 0 3.406-.582 5.046-2.455 6.918L306.091 93h2.299c3.764 0 5.939-3.402 6.419-10.037.352-4.859.757-5.963 2.189-5.963 2.838 0 9.04-2.934 9.669-4.575.95-2.476.087-2.365-5.167.671M62 72.893c0 .491.675 1.152 1.5 1.469 2.157.827 1.847 3.393-.5 4.138-6.667 2.116.842 10.607 9.184 10.385l4.316-.115-3.943-.759c-6.587-1.268-10.413-6.844-6.057-8.829 3.094-1.41 3.201-3.578.277-5.625C64.319 71.835 62 71.513 62 72.893m117.709 2.42c-3.205.896-4.273 1.965-6.916 6.923-3.27 6.137-6.621 9.246-10.806 10.027-1.948.364-1.728.493 1.013.594 5.638.209 11.101-4.377 14.282-11.988 1.006-2.409 2.365-3.815 4.11-4.253 1.435-.36 2.608-1.096 2.608-1.635s-.113-.924-.25-.855-1.956.604-4.041 1.187m73.07 24.187c-6.739 9.214-7.312 19.5-1.086 19.5 2.227 0 2.307-.143.878-1.571-2.498-2.498-1.903-8.18 1.486-14.184 4.306-7.63 3.434-10.187-1.278-3.745" fill="#5a6ba4"/><path d="M473.455 20.455c-4.274 4.273-2.996 10.727 4.314 21.773 3.001 4.534 3.674 4.587 11.053.862 15.115-7.63 16.658-25.785 1.708-20.101-2.389.908-3.168.658-6.167-1.975-4.162-3.655-7.635-3.833-10.908-.559M336.19 30.298c-3.176 3.381-6.116 12.869-7.473 24.119-1.317 10.922-3.351 13.657-12.363 16.631-4.53 1.495-4.505 1.547-3.379-7.126 2.291-17.651.713-28.209-4.409-29.495-8.985-2.255-16.945 7.945-13.198 16.911 2.958 7.08 6.138 3.468 3.462-3.933-1.489-4.117.999-8.715 4.446-8.216 4.862.704 4.525 18.323-.439 22.962-3.378 3.157-3.903 9.011-1.087 12.13 1.345 1.49 1.75 3.708 1.75 9.579 0 7.06.164 7.663 2.153 7.947 2.984.425 5.347-3.309 5.347-8.448 0-5.575.794-7.359 3.276-7.359 1.134 0 4.461-1.354 7.393-3.009L327 69.983l.044 7.258c.085 14.248 1.579 17.715 7.647 17.744 4.301.02 4.391-.36 2.139-8.985-2.718-10.404-2.242-24.208.99-28.747 10.55-14.816 9.124-38.402-1.63-26.955m108.472 6.533c-2.395 2.5-2.923 4.185-3.885 12.402l-1.112 9.51-6.114-.491C425.391 57.597 417 64.871 417 72.601c0 2.507-4.012 10.062-6.67 12.559L408 87.349l.062-4.425c.034-2.433.414-7.799.844-11.924 1.637-15.708-4.871-17.717-13.956-4.308-4.784 7.061-6.036 6.678-4.043-1.237 2.129-8.453.358-10.42-5.417-6.015-3.264 2.489-3.491 3.031-3.5 8.361-.011 6.336-3.141 14.305-6.95 17.696l-2.243 1.997.556-9.997c.306-5.498.852-11.949 1.215-14.334.872-5.738-.592-7.283-4.286-4.524-2.707 2.021-2.744 2.021-6.019.089-8.329-4.915-18.407 3.224-19.926 16.09-1.719 14.559 8.861 22.61 17.085 13.002L365 83.64v2.98c0 6.575 7.193 7.621 12.335 1.794l3.165-3.586.5 3.336c.449 2.998.865 3.367 4.106 3.638l3.607.302.534-5.89c.633-6.983 2.152-10.199 7.662-16.225l4.105-4.489-.655 12.35c-.725 13.683-.562 14.107 5.436 14.135 3.375.015 6.106-2.029 9.333-6.985l1.627-2.5 1.538 3.67c3.722 8.881 12.172 8.061 18.398-1.786 1.055-1.668 1.198-1.477 1.25 1.666.171 10.282 10.428 7.403 17.103-4.8 2.548-4.659 3.111-4.973 4.947-2.761 1.016 1.225.673 2.129-1.935 5.099-4.63 5.275-4.026 8.805 1.578 9.214 7.279.531 11.207-5.033 9.101-12.894-.62-2.315-.057-3.053 5.286-6.923 5.915-4.285 6.573-5.057 5.352-6.279-.694-.694-8.233 4.215-10.303 6.71-1.925 2.32-3.422 1.95-5.354-1.32-2.321-3.929-2.159-6.47.62-9.7 2.366-2.751 4.664-2.629 4.664.246 0 2.233 2.447 1.058 2.803-1.346.682-4.605-5.17-6.709-10.704-3.847-4.513 2.334-6.515 6.284-6.36 12.551.141 5.73-5.78 17.229-8.239 16-1.803-.902-.493-20.793 2.134-32.396 3.86-17.054 2.362-23.384-3.972-16.773m-375.007.574c-15.426 5.717-13.896 18.487 3.315 27.66C87.657 72.893 87.039 89 72.052 89 63.721 89 56.459 80.576 63 78.5c4.616-1.465.342-6.126-4.503-4.91-7.996 2.007-7.438 13.718.834 17.473 27.574 12.52 45.305-17.632 18.931-32.193-10.661-5.887-12.38-9.2-7.673-14.793C75.069 38.752 84 40.545 84 46.77c0 2.777 1.471 3.583 4.036 2.211 10.056-5.382-6.671-15.916-18.381-11.576m-33.086 1.518c-1.285 1.42-2.588 1.786-4.98 1.398-6.372-1.034-8.806 5.231-3.839 9.878 7.538 7.052 11.412 7.192 15.22.551 5.457-9.514.236-19.16-6.401-11.827m152.086 3.906c-1.998 2.208-2.124 5.147-.326 7.606 2.657 3.634 8.661-2.739 7.129-7.567-.765-2.412-4.635-2.434-6.803-.039m-62.048 14.753c-1.043 2.717-.666 6.954.795 8.953 2.454 3.356-5.51 17.024-11.322 19.432-4.125 1.709-7.734.602-9.562-2.932-2.054-3.972-1.913-5.035.666-5.035 9.849 0 18.432-13.654 11.593-18.443-13.708-9.602-29.656 18.953-16.682 29.869 8.388 7.059 19.669 1.236 26.881-13.875 4.223-8.85 4.931-8.285 4.286 3.423-.915 16.591 7.59 18.382 16.367 3.447 1.011-1.721 1.249-1.482 2.279 2.292 3.044 11.156 14.311 9.732 21.004-2.655 2.484-4.596 3.574-5.628 7.014-6.644L184 74.211v8.288c0 8.973.331 9.501 5.965 9.501 2 0 3.837-1.145 6.416-4 4.414-4.885 4.888-4.949 4.061-.545-.582 3.102-.39 3.52 1.876 4.089 5.162 1.295 6.142.408 6.686-6.054.55-6.539.575-6.595 6.323-14.267 5.026-6.708 5.173-6.478 5.173 8.115V91.5l4.128.302c3.829.279 4.419-.039 8.138-4.39 3.899-4.561 4.031-4.625 4.737-2.302 2.736 8.996 13.103 9.503 17.514.857 2.404-4.712 2.983-4.93 2.983-1.122 0 2.087-1.751 4.819-6.57 10.25-13.787 15.54-14.339 27.905-1.245 27.905 9.808 0 12.562-4.925 13.79-24.664l.824-13.247 6.1-7.466c3.356-4.106 6.101-7.951 6.101-8.544 0-2.235-1.992-.903-6.985 4.671l-5.151 5.75.605-4.5a90.83 90.83 0 0 1 1.657-8.603c2.114-8.25.101-11.142-4.855-6.972-2.665 2.243-3.181 2.356-4.876 1.073-6.551-4.959-16.713.613-19.87 10.894-5.289 17.228-10.936 19.372-9.293 3.528 2.044-19.709-4.151-23.262-13.9-7.971-3.916 6.142-6.089 7.826-4.902 3.801 1.552-5.265 1.874-13.75.521-13.75-5.095 0-8.909 5.542-8.947 13-.023 4.629-3.991 13.085-7.51 16.005-1.762 1.462-1.729-8.452.079-23.755.732-6.198-.553-6.82-5.496-2.661-2.321 1.953-3.077 3.421-3.077 5.977 0 2.492-.648 3.812-2.451 4.994-3.936 2.579-6.107 1.552-5.735-2.713.785-8.999-5.172-14.021-9.741-8.212-3.379 4.295-2.82 9.925 1.378 13.884l3.452 3.255-2.202 4.362c-6.347 12.577-14.554 1.485-10.139-13.703.886-3.047 1.361-6.191 1.056-6.986-1.643-4.281-9.618 2.2-9.618 7.816 0 3.918-4.972 14.51-8.137 17.333l-2.134 1.904.476-9.5c.582-11.594.457-12-3.689-12-3.128 0-3.313-.196-3.221-3.412.156-5.531-5.958-9.514-7.688-5.006m-17.843 6.126C104.991 67.877 103.812 75 106.894 75c3.53 0 8.277-5.521 7.922-9.213-.373-3.883-3.46-4.943-6.052-2.079m247.019.042c-5.811 6.662-5.295 22.75.73 22.75 2.292 0 8.191-10.901 9.172-16.948 1.019-6.275-5.935-10.349-9.902-5.802m72.942.002c-5.317 5.875-4.522 24.097 1.006 23.075 4.329-.8 11.496-21.803 8.161-23.915-2.342-1.483-7.492-1.011-9.167.84m-182.294 3.173c-5.441 8.222-1.477 24.047 4.637 18.513 2.26-2.045 6.979-11.953 7.644-16.048 1.131-6.973-8.075-8.82-12.281-2.465m6.14 32.825c-6.405 8.821-7.006 19.25-1.11 19.25 3.246 0 4.711-4.077 5.3-14.75.591-10.682.426-10.859-4.19-4.5" fill="#d53f84"/></svg>